<svg id="Capa_1" data-name="Capa 1" xmlns="http://www.w3.org/2000/svg" xmlns:xlink="http://www.w3.org/1999/xlink" viewBox="0 0 500 500"><defs><style>.cls-1{fill:#97a6b7;}.cls-2{fill:url(#linear-gradient);}.cls-3{fill:url(#linear-gradient-2);}.cls-4{fill:#fff;}.cls-5{fill:url(#linear-gradient-3);}.cls-6{fill:#9d3060;}.cls-7{fill:url(#linear-gradient-4);}.cls-8{fill:url(#linear-gradient-5);}.cls-9{fill:url(#linear-gradient-6);}.cls-10{fill:url(#linear-gradient-7);}.cls-11{fill:url(#linear-gradient-8);}.cls-12{fill:url(#linear-gradient-9);}.cls-13{fill:url(#linear-gradient-10);}.cls-14{fill:url(#linear-gradient-11);}.cls-15{fill:url(#linear-gradient-12);}.cls-16{fill:url(#linear-gradient-13);}.cls-17{fill:#de8bdf;}.cls-18{fill:url(#linear-gradient-14);}.cls-19{fill:url(#linear-gradient-15);}.cls-20{fill:url(#linear-gradient-16);}.cls-21{fill:url(#linear-gradient-17);}.cls-22{fill:url(#linear-gradient-18);}.cls-23{fill:url(#linear-gradient-19);}.cls-24{fill:url(#linear-gradient-20);}.cls-25{fill:#2c2870;}</style><linearGradient id="linear-gradient" x1="315.06" y1="372.97" x2="315.06" y2="333.01" gradientUnits="userSpaceOnUse"><stop offset="0" stop-color="#444b8c"/><stop offset="1" stop-color="#26264f"/></linearGradient><linearGradient id="linear-gradient-2" x1="148.45" y1="183.23" x2="445.45" y2="244.79" gradientUnits="userSpaceOnUse"><stop offset="0" stop-color="#4f5cbd"/><stop offset="1" stop-color="#362a8c"/></linearGradient><linearGradient id="linear-gradient-3" x1="204.39" y1="6.63" x2="420.15" y2="238.29" gradientUnits="userSpaceOnUse"><stop offset="0" stop-color="#ff9085"/><stop offset="1" stop-color="#fb6fbb"/></linearGradient><linearGradient id="linear-gradient-4" x1="237.14" y1="133.87" x2="331.64" y2="338.71" gradientUnits="userSpaceOnUse"><stop offset="0" stop-color="#ffc444"/><stop offset="1" stop-color="#f36f56"/></linearGradient><linearGradient id="linear-gradient-5" x1="356.94" y1="88.31" x2="444.05" y2="277.13" xlink:href="#linear-gradient-4"/><linearGradient id="linear-gradient-6" x1="252.83" y1="126.75" x2="343.29" y2="322.82" xlink:href="#linear-gradient-4"/><linearGradient id="linear-gradient-7" x1="224.94" y1="380.03" x2="114.5" y2="285.82" gradientTransform="matrix(1, 0.02, -0.02, 1, -14.53, -5.8)" xlink:href="#linear-gradient"/><linearGradient id="linear-gradient-8" x1="71.17" y1="192.84" x2="196.45" y2="396.6" gradientTransform="matrix(1, 0.02, -0.02, 1, -14.53, -5.8)" xlink:href="#linear-gradient"/><linearGradient id="linear-gradient-9" x1="91.64" y1="233.58" x2="148.12" y2="355.99" gradientTransform="matrix(1, 0.02, -0.02, 1, -14.53, -5.8)" xlink:href="#linear-gradient-4"/><linearGradient id="linear-gradient-10" x1="118.52" y1="302.92" x2="169.03" y2="412.41" gradientTransform="matrix(1, 0.02, -0.02, 1, -14.53, -5.8)" xlink:href="#linear-gradient-4"/><linearGradient id="linear-gradient-11" x1="116.68" y1="171.44" x2="169.37" y2="285.65" gradientTransform="matrix(1, 0.02, -0.02, 1, -14.53, -5.8)" xlink:href="#linear-gradient-3"/><linearGradient id="linear-gradient-12" x1="124.19" y1="355.66" x2="160.71" y2="434.83" gradientTransform="matrix(1, 0.02, -0.02, 1, -14.53, -5.8)" xlink:href="#linear-gradient-4"/><linearGradient id="linear-gradient-13" x1="160.49" y1="236.77" x2="208.81" y2="341.49" gradientTransform="matrix(1, 0.02, -0.02, 1, -14.53, -5.8)" xlink:href="#linear-gradient-4"/><linearGradient id="linear-gradient-14" x1="285.04" y1="404.49" x2="216.26" y2="345.82" gradientTransform="matrix(1, 0.02, -0.02, 1, -13.58, -7.43)" xlink:href="#linear-gradient"/><linearGradient id="linear-gradient-15" x1="196.06" y1="282.4" x2="263.02" y2="424.24" gradientTransform="matrix(1, 0.02, -0.02, 1, -13.58, -7.43)" xlink:href="#linear-gradient"/><linearGradient id="linear-gradient-16" x1="205.02" y1="312.96" x2="240.89" y2="390.7" gradientTransform="matrix(1, 0.02, -0.02, 1, -13.58, -7.43)" xlink:href="#linear-gradient-4"/><linearGradient id="linear-gradient-17" x1="219.2" y1="363.13" x2="248.7" y2="427.07" gradientTransform="matrix(1, 0.02, -0.02, 1, -13.58, -7.43)" xlink:href="#linear-gradient-4"/><linearGradient id="linear-gradient-18" x1="223.03" y1="398.18" x2="242.98" y2="441.42" gradientTransform="matrix(1, 0.02, -0.02, 1, -13.58, -7.43)" xlink:href="#linear-gradient-4"/><linearGradient id="linear-gradient-19" x1="239.82" y1="314.84" x2="271.05" y2="382.55" gradientTransform="matrix(1, 0.02, -0.02, 1, -13.58, -7.43)" xlink:href="#linear-gradient-4"/><linearGradient id="linear-gradient-20" x1="217.87" y1="270.38" x2="249.11" y2="338.09" gradientTransform="matrix(1, 0.02, -0.02, 1, -13.58, -7.43)" xlink:href="#linear-gradient-3"/></defs><title>Iconos Nico CV</title><g id="Responsive_web_design" data-name="Responsive web design"><path class="cls-1" d="M351.3,364.48a16.76,16.76,0,0,1-11.12-12.62L331.92,311l-70.68,2.51-8.7,42.6c-1.22,6,3.66,11.95,9.28,14.15l29.57,11.57a38.51,38.51,0,0,0,17.29,2.51L371.17,379a3.89,3.89,0,0,0,3.51-3.44c.21-1.84,1.49-3.91-.25-4.48Z"/><path class="cls-2" d="M352,362a16.61,16.61,0,0,1-11.1-12.47l-8.26-40.38-69,2.48L255,353.7a12.32,12.32,0,0,0,7.62,14l29.54,11.42a38.68,38.68,0,0,0,17.27,2.48l62.43-5.28a3.85,3.85,0,0,0,.88-7.5Z"/><path class="cls-3" d="M458,92.05,143,79.39c-4.8-.19-8.73,3.12-8.73,7.36V329.87c0,4.24,3.93,7.55,8.73,7.34L458,323.9a7.25,7.25,0,0,0,6.9-7.13V99.17A7.24,7.24,0,0,0,458,92.05Z"/><path class="cls-4" d="M144,115v158.3c0,3.95,3.65,7.08,8.11,6.95l299-8.5a6.69,6.69,0,0,0,6.48-6.59V123.93Z"/><path class="cls-5" d="M457.53,123.93V107.72a6.62,6.62,0,0,0-6.35-6.51L151.9,90.05c-4.36-.17-7.94,2.87-7.94,6.74V115Z"/><path class="cls-6" d="M165.84,102.63a2.53,2.53,0,0,1-2.77,2.37,2.73,2.73,0,0,1-2.78-2.55,2.53,2.53,0,0,1,2.78-2.38A2.74,2.74,0,0,1,165.84,102.63Z"/><path class="cls-6" d="M177.78,103a2.5,2.5,0,0,1-2.73,2.36,2.71,2.71,0,0,1-2.75-2.54,2.51,2.51,0,0,1,2.75-2.36A2.71,2.71,0,0,1,177.78,103Z"/><path class="cls-6" d="M189.59,103.41a2.49,2.49,0,0,1-2.71,2.35,2.69,2.69,0,0,1-2.71-2.53,2.48,2.48,0,0,1,2.71-2.35A2.69,2.69,0,0,1,189.59,103.41Z"/><polygon class="cls-7" points="340.63 203.67 166.92 204.61 166.92 132.08 340.63 135.24 340.63 203.67"/><polygon class="cls-8" points="438.72 203.14 350.82 203.62 350.82 135.42 438.72 137.02 438.72 203.14"/><polygon class="cls-9" points="438.72 252.22 166.92 258.45 166.92 214.08 438.72 211.77 438.72 252.22"/><path class="cls-10" d="M192.52,186.1l-3.7,212.1c-.06,3.17-3.54,4-7.49,4.35L44.9,415.4l-2.09.17c-4.28.34-7.74-2.09-7.68-5.41L39,188.53c.06-3.32,3.61-6.08,7.88-6.14l2.83,0,136.64,2.84C190.29,185.13,192.58,182.93,192.52,186.1Z"/><path class="cls-11" d="M196.72,185.93,193,398c-.05,3.17-3.32,6-7.26,6.34l-138.66,11c-4.28.34-7.74-2.09-7.68-5.41l3.87-221.57c.05-3.32,3.6-6.08,7.88-6.14l138.5-1.95C193.61,180.21,196.78,182.76,196.72,185.93Z"/><path class="cls-4" d="M54,194.81l132-2.3a6,6,0,0,1,6,6l-3.16,194.69a7.08,7.08,0,0,1-6.53,7L50.57,410.67a5.72,5.72,0,0,1-6.18-5.8l3.51-204A6.17,6.17,0,0,1,54,194.81Z"/><polygon class="cls-12" points="57.58 243.43 132.74 241.13 131.56 311.47 56.35 315.32 57.58 243.43"/><polygon class="cls-13" points="56.2 324.38 180.5 317.67 179.8 359.94 55.44 368.21 56.2 324.38"/><path class="cls-14" d="M54.49,194.69l131.44-2.18a6,6,0,0,1,6.14,6.14l-.47,29L47.38,231.53l.52-30.25A6.71,6.71,0,0,1,54.49,194.69Z"/><polygon class="cls-15" points="55.28 377.89 179.65 369.27 179.34 388.34 54.94 397.66 55.28 377.89"/><polygon class="cls-16" points="139.66 240.91 181.78 239.63 180.64 308.95 138.49 311.11 139.66 240.91"/><path class="cls-17" d="M124.25,187.73a2.44,2.44,0,0,1-2.6,2.07,2.25,2.25,0,0,1-2.54-2,2.44,2.44,0,0,1,2.61-2.07A2.25,2.25,0,0,1,124.25,187.73Z"/><path class="cls-18" d="M251,275.41l-2.56,146.38c0,2.19-1.92,2.76-4,2.94l-73.24,7.78-1.11.09a3.67,3.67,0,0,1-4.09-3.77l2.66-152.27a4.32,4.32,0,0,1,4.23-4.19l1.51,0,73.31,2.41C249.78,274.73,251,273.22,251,275.41Z"/><path class="cls-19" d="M253.24,275.31l-2.55,146.35a4.48,4.48,0,0,1-3.93,4.32l-74.44,6.5a3.68,3.68,0,0,1-4.09-3.78l2.66-152.24a4.31,4.31,0,0,1,4.23-4.19l74.34-.89A3.78,3.78,0,0,1,253.24,275.31Z"/><path class="cls-4" d="M177.43,280.94l65-1.24a8,8,0,0,1,8.17,8.16L248.34,419a4.2,4.2,0,0,1-3.83,4.11l-69.75,6.11a3.57,3.57,0,0,1-3.89-3.63l2.45-140.52A4.2,4.2,0,0,1,177.43,280.94Z"/><polygon class="cls-20" points="180.87 315.93 219.2 314.57 218.35 363.33 180 365.56 180.87 315.93"/><polygon class="cls-21" points="179.89 371.81 241.66 368.03 241.15 397.39 179.37 402.04 179.89 371.81"/><polygon class="cls-22" points="179.27 407.37 241.06 402.57 240.82 415.81 179.03 421 179.27 407.37"/><polygon class="cls-23" points="223.32 314.43 242.61 313.75 241.77 361.96 222.47 363.09 223.32 314.43"/><path class="cls-24" d="M177.12,281l69.47-1.33a4.05,4.05,0,0,1,4.12,4.12L250.35,304,173,306.41l.37-21.66A3.88,3.88,0,0,1,177.12,281Z"/><path class="cls-17" d="M214.25,276.3a1.44,1.44,0,0,1-1.41,1.42,1.33,1.33,0,0,1-1.35-1.38,1.44,1.44,0,0,1,1.4-1.42A1.34,1.34,0,0,1,214.25,276.3Z"/><ellipse class="cls-25" cx="283.91" cy="302.82" rx="4.58" ry="4.89" transform="translate(-10.4 10.09) rotate(-2)"/><ellipse class="cls-25" cx="304.05" cy="302.12" rx="4.58" ry="4.89" transform="translate(-10.36 10.8) rotate(-2)"/><ellipse class="cls-25" cx="324.19" cy="301.41" rx="4.58" ry="4.89" transform="translate(-10.32 11.5) rotate(-2)"/></g></svg>