<svg id="Capa_1" data-name="Capa 1" xmlns="http://www.w3.org/2000/svg" xmlns:xlink="http://www.w3.org/1999/xlink" viewBox="0 0 500 500"><defs><style>.cls-1{fill:#ebeff2;}.cls-2{opacity:0.7;}.cls-3{fill:url(#linear-gradient);}.cls-4{opacity:0.5;}.cls-5,.cls-7,.cls-8{fill:#fff;}.cls-6{fill:url(#linear-gradient-2);}.cls-7{opacity:0.4;}.cls-8{opacity:0.2;}.cls-9{fill:url(#linear-gradient-3);}.cls-10{fill:#383838;}.cls-11{fill:#ea524e;}.cls-12{fill:#ffd550;}.cls-13{fill:#4ab24b;}.cls-14{fill:url(#Degradado_sin_nombre_68);}.cls-15{fill:url(#Degradado_sin_nombre_56);}.cls-16{fill:url(#Degradado_sin_nombre_63);}.cls-17{fill:#9aa5b3;}</style><linearGradient id="linear-gradient" x1="86.1" y1="408.89" x2="395.04" y2="408.89" gradientUnits="userSpaceOnUse"><stop offset="0" stop-color="#ffc444"/><stop offset="1" stop-color="#f36f56"/></linearGradient><linearGradient id="linear-gradient-2" x1="86.1" y1="83.33" x2="395.04" y2="83.33" gradientUnits="userSpaceOnUse"><stop offset="0" stop-color="#ff9085"/><stop offset="1" stop-color="#fb6fbb"/></linearGradient><linearGradient id="linear-gradient-3" x1="90.98" y1="163.61" x2="406.34" y2="323.45" gradientUnits="userSpaceOnUse"><stop offset="0" stop-color="#4850a9"/><stop offset="1" stop-color="#382d8f"/></linearGradient><linearGradient id="Degradado_sin_nombre_68" x1="182.08" y1="209.34" x2="182.08" y2="300.16" gradientUnits="userSpaceOnUse"><stop offset="0.01" stop-color="#abbbee"/><stop offset="0.99" stop-color="#219bfc"/></linearGradient><linearGradient id="Degradado_sin_nombre_56" x1="233.03" y1="270.87" x2="211.3" y2="293.38" gradientUnits="userSpaceOnUse"><stop offset="0" stop-color="#f1d83a"/><stop offset="1" stop-color="#ff8a14"/></linearGradient><linearGradient id="Degradado_sin_nombre_63" x1="181.93" y1="264.2" x2="110.38" y2="318.87" gradientUnits="userSpaceOnUse"><stop offset="0" stop-color="#fe8498"/><stop offset="1" stop-color="#d01d7b"/></linearGradient></defs><title>Iconos Nico CV</title><path class="cls-1" d="M86.4,136.88H394.75a14.35,14.35,0,0,1,14.35,14.35V160a0,0,0,0,1,0,0H72a0,0,0,0,1,0,0v-8.81A14.35,14.35,0,0,1,86.4,136.88Z"/><path class="cls-1" d="M72,160H409.1a0,0,0,0,1,0,0V327.83A14.06,14.06,0,0,1,395,341.88H86.1A14.06,14.06,0,0,1,72,327.83V160A0,0,0,0,1,72,160Z"/><g class="cls-2"><rect class="cls-3" x="86.1" y="317.78" width="308.94" height="182.22" rx="17.7"/><g class="cls-4"><circle class="cls-5" cx="127.24" cy="374.52" r="9.08"/><circle class="cls-5" cx="127.24" cy="416.67" r="9.08"/><circle class="cls-5" cx="127.24" cy="458.81" r="9.08"/><path class="cls-5" d="M242.56,378.53H148.12a4,4,0,0,1,0-8h94.44a4,4,0,0,1,0,8Z"/><path class="cls-5" d="M216.42,420.67h-68.3a4,4,0,1,1,0-8h68.3a4,4,0,0,1,0,8Z"/><path class="cls-5" d="M197.74,462.82H148.12a4,4,0,1,1,0-8h49.62a4,4,0,1,1,0,8Z"/></g><path class="cls-5" d="M366,378.63H305.6a4,4,0,0,0-4,4v13.71a4,4,0,0,0,8,0v-9.7h21.44v60h-6a4,4,0,1,0,0,8h20a4,4,0,1,0,0-8h-6v-60H362v9.7a4,4,0,0,0,8,0V382.64A4,4,0,0,0,366,378.63Z"/></g><g class="cls-2"><rect class="cls-6" x="86.1" width="308.94" height="166.67" rx="17.7"/><path class="cls-7" d="M326.29,0a39.73,39.73,0,0,1-39.72,39.72A39.72,39.72,0,0,1,246.86,0"/><path class="cls-8" d="M395,144.74,330.36,80.06a15.63,15.63,0,0,0-22.17,0l-28.78,28.78-30.7,30.68,27.15,27.15H395Z"/><path class="cls-7" d="M86.1,100.2l50.57-50.57a15.69,15.69,0,0,1,22.18,0L218,108.84l57.83,57.83H86.1Z"/></g><rect class="cls-9" x="72.04" y="136.97" width="337.06" height="204.91" rx="14.33"/><path class="cls-10" d="M86.38,137H394.77A14.33,14.33,0,0,1,409.1,151.3v6.9a0,0,0,0,1,0,0H72a0,0,0,0,1,0,0v-6.9A14.33,14.33,0,0,1,86.38,137Z"/><circle class="cls-11" cx="87.45" cy="148.31" r="3.59"/><circle class="cls-12" cx="99.94" cy="148.31" r="3.59"/><circle class="cls-13" cx="112.43" cy="148.31" r="3.59"/><rect class="cls-14" x="108.15" y="201.19" width="147.86" height="99.54"/><path class="cls-5" d="M238.25,201.19a23.72,23.72,0,1,1-47.44,0Z"/><path class="cls-15" d="M256,287.64v13.1H152.39l34.55-34.54L204.13,249a9.35,9.35,0,0,1,13.25,0Z"/><path class="cls-16" d="M221.48,300.74H108.15V261l30.2-30.21a9.39,9.39,0,0,1,13.25,0l35.34,35.37Z"/><path class="cls-17" d="M381.74,212.52h-103a4.38,4.38,0,0,1,0-8.75h103a4.38,4.38,0,1,1,0,8.75Z"/><path class="cls-17" d="M353.22,235.41H278.71a4.37,4.37,0,0,1,0-8.74h74.51a4.37,4.37,0,0,1,0,8.74Z"/><path class="cls-17" d="M332.85,258.31H278.71a4.38,4.38,0,0,1,0-8.75h54.14a4.38,4.38,0,0,1,0,8.75Z"/><path d="M415.43,276.88a2.35,2.35,0,0,1-2.11-1.36l-4.63-8.79-7.24,6a2.32,2.32,0,0,1-1.57.59h-.22a2.43,2.43,0,0,1-1.66-1,2.47,2.47,0,0,1-.43-1.4V233.39a2.31,2.31,0,0,1,1.46-2.21A2.38,2.38,0,0,1,400,231a2.31,2.31,0,0,1,1.65.72L428,258.08a2.25,2.25,0,0,1,.59,2.46,2.15,2.15,0,0,1-2,1.55l-5,.65-2.39.3-1.71.35,3.81,8.11a2.26,2.26,0,0,1-.37,2.76,2.65,2.65,0,0,1-.71.51l-1,.49c-.49.26-1,.52-1.51.76l-1,.54a2.74,2.74,0,0,1-1.26.32Z"/><path class="cls-5" d="M400,231.75a1.56,1.56,0,0,1,1.12.5l26.37,26.37a1.49,1.49,0,0,1,.4,1.68,1.38,1.38,0,0,1-1.36,1l-5.06.66-2.38.29-2.72.55,4.22,9a1.54,1.54,0,0,1-.22,1.91,2,2,0,0,1-.51.36c-.81.41-1.62.85-2.46,1.25l-1,.55a1.94,1.94,0,0,1-.9.23,1.61,1.61,0,0,1-1.44-1l-5.06-9.61-8,6.64a1.58,1.58,0,0,1-1.09.41h-.16a1.63,1.63,0,0,1-1.1-.66,1.78,1.78,0,0,1-.29-1V233.39a1.56,1.56,0,0,1,1-1.51,1.63,1.63,0,0,1,.64-.13m0-1.52a3.16,3.16,0,0,0-3.15,3.16V271a3.33,3.33,0,0,0,.57,1.8,3.21,3.21,0,0,0,2.09,1.28h.41a3.1,3.1,0,0,0,2.08-.77l6.5-5.42,4.18,7.94a3.14,3.14,0,0,0,2.79,1.78,3.51,3.51,0,0,0,1.58-.39l1-.56c.51-.24,1-.5,1.5-.75l.95-.49a3.63,3.63,0,0,0,.91-.65,3,3,0,0,0,.5-3.65l-3.38-7.21.76-.16,2.33-.28,3.26-.43,1.81-.23a2.84,2.84,0,0,0,2.6-2.06,3,3,0,0,0-.73-3.2l0,0,0,0-26.37-26.37a3.1,3.1,0,0,0-2.19-.94Z"/></svg>