<svg id="Capa_1" data-name="Capa 1" xmlns="http://www.w3.org/2000/svg" xmlns:xlink="http://www.w3.org/1999/xlink" viewBox="0 0 500 500"><defs><style>.cls-1{fill:url(#linear-gradient);}.cls-2{fill:#263238;}.cls-3{fill:url(#linear-gradient-2);}.cls-4{fill:url(#linear-gradient-3);}.cls-5{fill:#2c2870;}.cls-6{fill:#ff725e;}.cls-7{fill:#fff;}.cls-8{fill:#517887;}.cls-10,.cls-11,.cls-12,.cls-9{fill:none;stroke-linecap:round;stroke-miterlimit:10;}.cls-10,.cls-9{stroke:#517887;}.cls-9{stroke-width:1.45px;}.cls-10,.cls-11,.cls-12{stroke-width:5.08px;}.cls-11{stroke:#f9b233;}.cls-12{stroke:#ff725e;}</style><linearGradient id="linear-gradient" x1="51.83" y1="230" x2="448.17" y2="230" gradientUnits="userSpaceOnUse"><stop offset="0" stop-color="#4850a9"/><stop offset="1" stop-color="#382d8f"/></linearGradient><linearGradient id="linear-gradient-2" x1="250" y1="392.12" x2="250" y2="368.8" xlink:href="#linear-gradient"/><linearGradient id="linear-gradient-3" x1="158.9" y1="401.57" x2="341.1" y2="401.57" xlink:href="#linear-gradient"/></defs><title>Iconos Nico CV</title><rect class="cls-1" x="51.83" y="93.83" width="396.34" height="272.35" rx="10.57"/><rect class="cls-2" x="63.49" y="110.91" width="373.03" height="216"/><rect class="cls-3" x="211.76" y="366.18" width="76.48" height="40.31"/><path class="cls-4" d="M174.74,394.29c-8.75,0-15.84,5.23-15.84,11.67v2.9H341.1V406c0-6.44-7.09-11.67-15.84-11.67Z"/><path class="cls-5" d="M275.84,347.56a4.91,4.91,0,1,1-4.91-4.91,4.91,4.91,0,0,1,4.91,4.91"/><path class="cls-5" d="M254.91,347.56a4.91,4.91,0,1,1-4.91-4.91,4.91,4.91,0,0,1,4.91,4.91"/><path class="cls-5" d="M234,347.56a4.91,4.91,0,1,1-4.91-4.91,4.91,4.91,0,0,1,4.91,4.91"/><rect class="cls-6" x="289.14" y="55.14" width="136.44" height="89.38" rx="12.73"/><path class="cls-7" d="M312.9,106v-8.2l28.54-12v9l-18.84,7,.29-.43v1l-.29-.46,18.84,7.06v9Z"/><path class="cls-7" d="M368,76,355,124.3h-8.22l13-48.34Z"/><path class="cls-7" d="M401.81,106l-28.55,12v-9L392.11,102l-.28.46v-1l.28.43-18.85-7v-9l28.55,12Z"/><circle class="cls-8" cx="82.21" cy="127.46" r="3.05"/><circle class="cls-8" cx="82.21" cy="139.65" r="3.05"/><circle class="cls-8" cx="82.21" cy="151.84" r="3.05"/><circle class="cls-8" cx="82.21" cy="164.04" r="3.05"/><circle class="cls-8" cx="82.21" cy="176.23" r="3.05"/><circle class="cls-8" cx="82.21" cy="188.42" r="3.05"/><circle class="cls-8" cx="82.21" cy="200.62" r="3.05"/><circle class="cls-8" cx="82.21" cy="212.81" r="3.05"/><circle class="cls-8" cx="82.21" cy="225" r="3.05"/><circle class="cls-8" cx="82.21" cy="237.2" r="3.05"/><circle class="cls-8" cx="82.21" cy="249.39" r="3.05"/><circle class="cls-8" cx="82.21" cy="261.59" r="3.05"/><circle class="cls-8" cx="82.21" cy="273.78" r="3.05"/><circle class="cls-8" cx="82.21" cy="285.97" r="3.05"/><circle class="cls-8" cx="82.21" cy="298.17" r="3.05"/><circle class="cls-8" cx="82.21" cy="310.36" r="3.05"/><line class="cls-9" x1="93.8" y1="124.41" x2="93.8" y2="313.41"/><line class="cls-10" x1="102.67" y1="127.46" x2="128.11" y2="127.46"/><line class="cls-11" x1="137.5" y1="127.46" x2="157.53" y2="127.46"/><line class="cls-10" x1="102.67" y1="139.85" x2="145.18" y2="139.85"/><line class="cls-10" x1="154.57" y1="139.85" x2="215.89" y2="139.85"/><line class="cls-12" x1="102.67" y1="152.25" x2="117.31" y2="152.25"/><line class="cls-11" x1="224.59" y1="139.85" x2="239.22" y2="139.85"/><line class="cls-10" x1="114.52" y1="164.65" x2="131.59" y2="164.65"/><line class="cls-10" x1="139.94" y1="164.65" x2="150.04" y2="164.65"/><line class="cls-10" x1="159.25" y1="164.65" x2="223" y2="164.65"/><line class="cls-10" x1="231.88" y1="164.65" x2="251.91" y2="164.65"/><line class="cls-10" x1="260.08" y1="164.65" x2="350.66" y2="164.65"/><line class="cls-10" x1="359.37" y1="164.65" x2="376.44" y2="164.65"/><line class="cls-10" x1="385.83" y1="164.65" x2="420.84" y2="164.65"/><line class="cls-12" x1="102.67" y1="313.41" x2="127.24" y2="313.41"/><line class="cls-11" x1="147.11" y1="313.41" x2="136.84" y2="313.41"/><line class="cls-11" x1="127.24" y1="301.01" x2="102.67" y2="301.01"/><line class="cls-11" x1="195.19" y1="301.01" x2="136.84" y2="301.01"/><line class="cls-10" x1="192.91" y1="288.61" x2="102.67" y2="288.61"/><line class="cls-10" x1="137.86" y1="276.22" x2="226.53" y2="276.22"/><line class="cls-10" x1="235.91" y1="276.22" x2="282.42" y2="276.22"/><line class="cls-10" x1="137.86" y1="263.82" x2="189.6" y2="263.82"/><line class="cls-11" x1="200.04" y1="263.82" x2="217.8" y2="263.82"/><line class="cls-10" x1="137.86" y1="251.42" x2="153.71" y2="251.42"/><line class="cls-10" x1="112.43" y1="239.03" x2="150.4" y2="239.03"/><line class="cls-10" x1="159.96" y1="239.03" x2="183.65" y2="239.03"/><line class="cls-10" x1="192.86" y1="239.03" x2="229.09" y2="239.03"/><line class="cls-10" x1="111.73" y1="226.63" x2="137.86" y2="226.63"/><line class="cls-10" x1="146.48" y1="226.63" x2="154.4" y2="226.63"/><line class="cls-10" x1="112.43" y1="214.23" x2="125.67" y2="214.23"/><line class="cls-10" x1="134.71" y1="214.23" x2="154.57" y2="214.23"/><line class="cls-10" x1="165.87" y1="214.23" x2="185.73" y2="214.23"/><line class="cls-10" x1="195.29" y1="214.23" x2="255.39" y2="214.23"/><line class="cls-10" x1="263.9" y1="214.23" x2="333.23" y2="214.23"/><line class="cls-10" x1="343.14" y1="214.23" x2="388.78" y2="214.23"/><line class="cls-10" x1="303.17" y1="177.04" x2="267.46" y2="177.04"/><line class="cls-10" x1="258.93" y1="177.04" x2="166.78" y2="177.04"/><line class="cls-10" x1="157.53" y1="177.04" x2="139.94" y2="177.04"/><line class="cls-10" x1="114.52" y1="177.04" x2="130.55" y2="177.04"/><line class="cls-12" x1="102.67" y1="189.44" x2="118.7" y2="189.44"/><line class="cls-10" x1="112.43" y1="201.84" x2="121.31" y2="201.84"/><line class="cls-10" x1="130.34" y1="201.84" x2="155.64" y2="201.84"/><line class="cls-10" x1="163.94" y1="201.84" x2="194.25" y2="201.84"/><line class="cls-11" x1="203.45" y1="201.84" x2="221.05" y2="201.84"/></svg>